<?xml version="1.0" encoding="utf-8"?>
<!-- Generator: Adobe Illustrator 22.1.0, SVG Export Plug-In . SVG Version: 6.00 Build 0)  -->
<svg version="1.1" id="Logo" xmlns="http://www.w3.org/2000/svg" xmlns:xlink="http://www.w3.org/1999/xlink" x="0px" y="0px"
	 viewBox="0 0 840.2 203.8" style="enable-background:new 0 0 840.2 203.8;" xml:space="preserve">
<style type="text/css">
	.st0{fill:#4ABF4F;}
	.st1{fill:url(#SVGID_1_);}
	.st2{fill:url(#SVGID_2_);}
</style>
<g id="Logo_1_">
	<path id="Signmark" class="st0" d="M514,60.5c0-5-4-9-9-9s-9,4-9,9v4.4c-7.7-11-21.2-15.5-32.7-15.5c-27.4,0-48.1,22.7-48.1,52.8
		c0,32,19.8,54.4,48.1,54.4c13.9,0,25.5-5.9,33.1-17.5l-0.1,6.4c-0.1,5,3.9,9.1,8.9,9.1h0.1c5,0,9-4,9-9v-0.4
		c-0.2-3.3-0.3-7.6-0.3-9.5V60.5z M465.2,140.8c-19.1,0-31.4-15.1-31.4-38.5c0-22.1,12.7-37,31.6-37c18.7,0,30.8,14.5,30.8,37
		C496.1,125,483.4,140.8,465.2,140.8z M348.2,49.3c-26.8,0-44,15.7-44,40v56.4c0,5,4.1,9.1,9.1,9.1s9.1-4.1,9.1-9.1v-53
		c0-16.7,8.8-27.1,25.7-27.1c16.9,0,25.7,10.4,25.7,27.1v52.9c0,5,4.1,9.1,9.1,9.1s9.1-4.1,9.1-9.1V89.2
		C392.2,64.9,375.1,49.3,348.2,49.3z M624.3,51.3c-5.1,0-9.2,4.1-9.2,9.2v52.9c0,16.7-8.8,27.1-25.7,27.1s-25.7-10.4-25.7-27.1V60.5
		c0-5-4.1-9.1-9.1-9.1s-9.1,4.1-9.1,9.1v56.3c0,24.3,17.2,40,44,40s44-15.7,44-40V60.5C633.4,55.5,629.4,51.4,624.3,51.3z M788.2,49
		c-30.1,0-52,22.7-52,54s21.9,54.2,52,54.2s52-22.8,52-54.2S818.3,49,788.2,49z M811.5,131.3c-12.7,12.9-33.4,13.1-46.3,0.4
		c-0.1-0.1-0.3-0.3-0.4-0.4c-6.5-6.9-10-16.7-10-28.3c0-18.2,10.4-37.9,33.3-37.9s33.3,19.6,33.3,37.9
		C821.5,114.6,818,124.4,811.5,131.3z M707.8,136c-3,0.5-6,1.2-9,1.9l-2.2,0.5c-0.2,0-0.3,0.1-0.5,0.1h-0.3l-0.7,0.1
		c-2.4,0.3-4.9-0.2-7-1.5c-1.4-0.9-2.6-2.1-3.4-3.5c-0.8-1.4-1.4-3-1.5-4.6V68.5h25.3c4.5,0,8.2-3.7,8.2-8.2s-3.6-8.1-8.1-8.2h-25.4
		V28.5h0.1c0-5-4.1-9.1-9.1-9.1c-5.1,0-9.2,4.1-9.2,9.1l-0.1,36.8v63.4l0.1,1.7c1.1,14,12.1,25.2,26.2,26.5c2.2,0.2,4.5,0.1,6.7-0.2
		l1.7-0.3l0.8-0.2l0.6-0.1l2.2-0.5c3-0.8,5.9-1.5,8.9-2.5c4.2-1.3,6.8-5.6,6-9.9C717.2,138.4,712.7,135.2,707.8,136z"/>
	<g id="Logomark">
		
			<linearGradient id="SVGID_1_" gradientUnits="userSpaceOnUse" x1="221.4781" y1="51.1729" x2="30.1482" y2="102.5129" gradientTransform="matrix(1 0 0 1 0 21.6)">
			<stop  offset="0" style="stop-color:#4ABF4F"/>
			<stop  offset="0.5" style="stop-color:#40A54C"/>
			<stop  offset="1" style="stop-color:#4ABF4F"/>
		</linearGradient>
		<path class="st1" d="M23,203.8c-12.7,0-23-10.3-23-23l7.7-10l8.3,10c0,1.9,0.7,3.6,2.1,5c1.3,1.4,3.1,2.1,5,2l74.8-0.3
			c3.9,0,7-3.1,7-7V23.3c0-12.7,10.3-23,23-23h74.9c12.7,0,23,10.3,23,23l0,0l-8.1,10l-7.9-10c0-3.9-3.1-7-7-7h-74.9
			c-3.9,0-7,3.1-7,7v157.2c0,12.7-10.3,23-22.9,23L23,203.8L23,203.8z"/>
		
			<linearGradient id="SVGID_2_" gradientUnits="userSpaceOnUse" x1="213.8303" y1="64.7519" x2="22.1703" y2="94.0918" gradientTransform="matrix(1 0 0 1 0 21.6)">
			<stop  offset="0" style="stop-color:#4ABF4F"/>
			<stop  offset="0.5" style="stop-color:#59D854"/>
			<stop  offset="1" style="stop-color:#4ABF4F"/>
		</linearGradient>
		<path class="st2" d="M182,203.7c-8.5,0-16.4-4.3-21-11.5L51.2,20.1c-1.6-2.6-4.5-4.1-7.5-4.1H23c-3.9,0-7,3.1-7,7v157.8H0V23
			C0,10.3,10.3,0,23,0h20.7c8.5,0,16.4,4.3,21,11.5l109.8,172.1c1.6,2.6,4.5,4.2,7.6,4.1l20.8-0.1c3.8,0,7-3.2,7-7V23.3h16v157.3
			c0,12.6-10.2,22.9-22.9,23l-20.8,0.1H182z"/>
	</g>
</g>
</svg>
