<?xml version="1.0" encoding="UTF-8"?>
<svg width="48px" height="43px" viewBox="0 0 48 43" version="1.1" xmlns="http://www.w3.org/2000/svg" xmlns:xlink="http://www.w3.org/1999/xlink">
    <!-- Generator: Sketch 52.4 (67378) - http://www.bohemiancoding.com/sketch -->
    <title>nauto-sign-mono</title>
    <desc>Created with Sketch.</desc>
    <g id="Symbols" stroke="none" stroke-width="1" fill="none" fill-rule="evenodd" opacity="0.699999988">
        <g id="footer/v1/375" transform="translate(-24.000000, -94.000000)" fill="#AFB6C3">
            <g id="Group-11">
                <g id="nauto-sign-mono" transform="translate(24.000000, 94.000000)">
                    <path d="M4.80427046,43 C2.15094515,43 0,40.8636616 0,38.2283546 L0,4.77169769 C0.00352876353,2.1378438 2.15240819,0.00355708241 4.80427046,5.22821623e-05 L9.45480427,5.22821623e-05 C11.0986975,-0.00536469161 12.63041,0.827352823 13.5117438,2.20561283 L22.4049822,16.0539882 L22.4049822,4.83531963 C22.407329,2.20346137 24.5529995,0.0695165709 27.202847,0.063674221 L43.1957295,0.063674221 C45.848079,0.0660127379 47.9976455,2.20098189 48,4.83531963 L48,38.1944229 C47.9942534,40.8149761 45.8661312,42.9428323 43.227758,42.9660683 L38.5708185,42.9978793 L38.5366548,42.9978793 C36.8923497,43.0049084 35.3599037,42.1717921 34.4797153,40.7923187 L25.6014235,26.954547 L25.6014235,38.1816985 C25.5979201,40.8106005 23.4568222,42.9428446 20.8099644,42.9533439 L4.81708185,43 L4.80427046,43 Z M4.80427046,3.18114922 C3.92031637,3.18231749 3.20402323,3.8937464 3.20284698,4.77169769 L3.20284698,38.2283546 C3.20227931,38.6503669 3.37081793,39.0552568 3.67126623,39.3536648 C3.97171454,39.6520728 4.37937278,39.8194669 4.80427046,39.8189031 L20.797153,39.772247 C21.6799266,39.7699089 22.3943092,39.0584804 22.394306,38.1816985 L22.394306,21.9687078 L10.8,3.91704298 C10.5067425,3.4584045 9.99755783,3.18073482 9.45053381,3.18114922 L4.80427046,3.18114922 Z M25.6014235,21.0398275 L37.1893238,39.0808886 C37.4846054,39.5427257 37.9986535,39.8208471 38.5494662,39.8167823 L43.2064057,39.7849714 C44.0857016,39.7768446 44.7948524,39.0677824 44.797153,38.1944229 L44.797153,4.83531963 C44.7959768,3.95736834 44.0796836,3.24593943 43.1957295,3.24477116 L27.202847,3.24477116 C26.3188929,3.24593943 25.6025997,3.95736834 25.6014235,4.83531963 L25.6014235,21.0398275 Z" id="Shape"></path>
                </g>
            </g>
        </g>
    </g>
</svg>